<svg xmlns="http://www.w3.org/2000/svg" xmlns:xlink="http://www.w3.org/1999/xlink" version="1.1" x="0px" y="0px" viewBox="0 0 64 80" style="enable-background:new 0 0 64 64;" xml:space="preserve"><g><path d="M30.78,41.884C32.055,41.538,33,40.383,33,39s-0.945-2.539-2.22-2.884C30.919,35.77,31,35.395,31,35c0-1.654-1.346-3-3-3   h-2v-9h3c1.103,0,2-0.897,2-2V9c0-1.103-0.897-2-2-2H17c-1.103,0-2,0.897-2,2v12c0,1.103,0.897,2,2,2h3v5h-2.759   c-1.581,0-3.152,0.22-4.67,0.654l-4.845,1.384c-0.531,0.152-0.838,0.705-0.687,1.236C7.164,31.714,7.564,32,8,32   c0.091,0,0.184-0.013,0.275-0.039l4.845-1.384C14.46,30.194,15.846,30,17.241,30H20v2h-1c-0.552,0-1,0.448-1,1s0.448,1,1,1h2h4h3   c0.551,0,1,0.449,1,1s-0.449,1-1,1h-9c-0.552,0-1,0.448-1,1s0.448,1,1,1h9h2c0.551,0,1,0.449,1,1s-0.449,1-1,1h-2h-9   c-0.552,0-1,0.448-1,1s0.448,1,1,1h9c0.551,0,1,0.449,1,1s-0.449,1-1,1h-3h-6h-1c-0.552,0-1,0.448-1,1s0.448,1,1,1h1h6   c0.551,0,1,0.449,1,1s-0.449,1-1,1h-7.759c-1.395,0-2.781-0.194-4.121-0.577l-4.845-1.384c-0.532-0.152-1.084,0.156-1.236,0.687   c-0.152,0.531,0.156,1.084,0.687,1.236l4.845,1.384C14.089,49.78,15.66,50,17.241,50H25c1.654,0,3-1.346,3-3   c0-0.352-0.072-0.686-0.184-1H28c1.654,0,3-1.346,3-3C31,42.605,30.919,42.23,30.78,41.884z M17,9h12l0.001,12H25h-4h-4V9z M22,32   v-9h2v9H22z"/><path d="M22,17c-0.552,0-1,0.448-1,1s0.448,1,1,1h0.5c0,0.552,0.448,1,1,1s1-0.448,1-1v-0.071c0.86-0.224,1.5-1,1.5-1.929v-1   c0-1.103-0.897-2-2-2h-1v-1h2c0.552,0,1-0.448,1-1s-0.448-1-1-1h-0.5c0-0.552-0.448-1-1-1s-1,0.448-1,1v0.071   c-0.86,0.224-1.5,1-1.5,1.929v1c0,1.103,0.897,2,2,2h1v1H22z"/><path d="M46.759,37c1.395,0,2.781,0.194,4.121,0.577l4.845,1.384C55.817,38.988,55.91,39,56,39c0.435,0,0.835-0.287,0.961-0.726   c0.152-0.531-0.156-1.084-0.687-1.236l-4.845-1.384C49.911,35.22,48.34,35,46.759,35H44v-5h3c1.103,0,2-0.897,2-2V16   c0-1.103-0.897-2-2-2H35c-1.103,0-2,0.897-2,2v12c0,1.103,0.897,2,2,2h3v9h-2c-1.654,0-3,1.346-3,3c0,0.395,0.081,0.77,0.22,1.116   C31.945,43.461,31,44.617,31,46c0,1.383,0.945,2.539,2.22,2.884C33.081,49.23,33,49.605,33,50c0,1.654,1.346,3,3,3h0.184   C36.072,53.314,36,53.648,36,54c0,1.654,1.346,3,3,3h7.759c1.581,0,3.152-0.22,4.67-0.654l4.845-1.384   c0.531-0.152,0.838-0.705,0.687-1.236c-0.152-0.531-0.706-0.839-1.236-0.687l-4.845,1.384C49.54,54.806,48.154,55,46.759,55H39   c-0.551,0-1-0.449-1-1s0.449-1,1-1h6h1c0.552,0,1-0.448,1-1s-0.448-1-1-1h-1h-6h-3c-0.551,0-1-0.449-1-1s0.449-1,1-1h9   c0.552,0,1-0.448,1-1s-0.448-1-1-1h-9h-2c-0.551,0-1-0.449-1-1s0.449-1,1-1h2h9c0.552,0,1-0.448,1-1s-0.448-1-1-1h-9   c-0.551,0-1-0.449-1-1s0.449-1,1-1h3h4h2c0.552,0,1-0.448,1-1s-0.448-1-1-1h-1v-2H46.759z M35,16h12v12h-4h-4h-4V16z M40,39v-9h2v9   H40z"/><path d="M39.5,26c0,0.552,0.448,1,1,1s1-0.448,1-1v-0.071c0.86-0.224,1.5-1,1.5-1.929v-1c0-1.103-0.897-2-2-2h-1v-1h2   c0.552,0,1-0.448,1-1s-0.448-1-1-1h-0.5c0-0.552-0.448-1-1-1s-1,0.448-1,1v0.071c-0.86,0.224-1.5,1-1.5,1.929v1   c0,1.103,0.897,2,2,2h1v1h-2c-0.552,0-1,0.448-1,1s0.448,1,1,1H39.5z"/></g><text x="0" y="79" fill="#000000" font-size="5px" font-weight="bold" font-family="'Helvetica Neue', Helvetica, Arial-Unicode, Arial, Sans-serif">Created by Kukuh Wachyu Bias</text><text x="0" y="84" fill="#000000" font-size="5px" font-weight="bold" font-family="'Helvetica Neue', Helvetica, Arial-Unicode, Arial, Sans-serif">from the Noun Project</text></svg>